<?xml version="1.0" encoding="UTF-8" standalone="no"?>
<svg width="" height="8em" viewBox="0 0 412 154" version="1.1" xmlns="http://www.w3.org/2000/svg" xmlns:xlink="http://www.w3.org/1999/xlink" xmlns:sketch="http://www.bohemiancoding.com/sketch/ns">
    <title>Slice 1</title>
    <description>Created with Sketch (http://www.bohemiancoding.com/sketch)</description>
    <defs></defs>
    <g id="Page 2" stroke="none" stroke-width="1" fill="none" fill-rule="evenodd">
        
            <g id="Portrait" transform="translate(-21.000000, -21.000000)">
                <path d="M0,1 L0,194 L768,194 L768,1 L0,1 Z M0,1" id="Rectangle 3" fill="#333333"></path>
                <g id="Logo" transform="translate(0.000000, 21.000000)">
                    <path d="M61.0095017,0 C38.9128641,0 21,17.906851 21,39.9991019 L21,113.000898 C21,135.091792 38.9104861,153 61.0095017,153 L134.990498,153 C157.087136,153 175,135.093149 175,113.000898 L175,39.9991019 C175,17.9082079 157.089514,0 134.990498,0 L61.0095017,0 Z M61.0095017,0" id="Rectangle 1" fill="#FBA617"></path>
                    <path d="M66,39 L57.1886668,80.2530396 C56.5088696,84.6265477 56.9832105,88.0361813 58.6117021,90.4819945 C60.4450446,93.2354708 64.131178,94.6121884 69.6702128,94.6121884 C72.556752,94.6121884 75.2677178,94.0498671 77.8031915,92.9252078 C80.3386652,91.8005484 82.6010539,90.229927 84.5904255,88.2132964 C86.5797972,86.1966658 88.2960921,83.7922577 89.7393617,81 C90.8936625,78.7668031 91.810918,76.3599899 92.4911448,73.7795133 L99.9042553,39 L99.9787234,39 L106.925532,39 L107,39 L98.1886668,80.2530396 C97.5088696,84.6265477 97.9832105,88.0361813 99.6117021,90.4819945 C101.445045,93.2354708 105.131178,94.6121884 110.670213,94.6121884 C113.556752,94.6121884 116.267718,94.0498671 118.803191,92.9252078 C121.338665,91.8005484 123.601054,90.229927 125.590426,88.2132964 C127.579797,86.1966658 129.296092,83.7922577 130.739362,81 C131.893662,78.7668031 132.810918,76.3599899 133.491145,73.7795133 L140.904255,39 L140.978723,39 L147.925532,39 L148,39 L139.188667,80.2530396 C138.50887,84.6265477 138.983211,88.0361813 140.611702,90.4819945 C142.445045,93.2354708 146.131178,94.6121884 151.670213,94.6121884 C154.556752,94.6121884 157.267718,94.0498671 159.803191,92.9252078 C162.338665,91.8005484 164.601054,90.229927 166.590426,88.2132964 C168.579797,86.1966658 170.296092,83.7922577 171.739362,81 C173.182631,78.2077423 174.255316,75.144061 174.957447,71.8088643 L175,71.6100227 L175,99.265928 L169.106383,99.265928 L170.861702,90.8891967 C169.691484,91.9750747 168.404262,93.0997172 167,94.2631579 C165.595738,95.4265986 164.015966,96.4930699 162.260638,97.4626039 C160.50531,98.4321378 158.554975,99.2465341 156.409574,99.9058172 C154.264174,100.5651 151.865261,100.894737 149.212766,100.894737 C145.936154,100.894737 143.166678,100.506929 140.904255,99.7313019 C138.668285,98.9647435 136.889547,98.1224379 135.567994,97.2043644 L135.12766,99.265928 L135.075331,99.265928 L130.021277,123 L123,123 L129.839994,90.9093321 C128.675569,91.9889763 127.395584,93.106907 126,94.2631579 C124.595738,95.4265986 123.015966,96.4930699 121.260638,97.4626039 C119.50531,98.4321378 117.554975,99.2465341 115.409574,99.9058172 C113.264174,100.5651 110.865261,100.894737 108.212766,100.894737 C104.936154,100.894737 102.166678,100.506929 99.9042553,99.7313019 C97.668285,98.9647435 95.8895466,98.1224379 94.5679938,97.2043644 L94.1276596,99.265928 L94.0753306,99.265928 L89.0212766,123 L82,123 L88.8399942,90.9093321 C87.6755695,91.9889763 86.3955843,93.106907 85,94.2631579 C83.5957377,95.4265986 82.0159662,96.4930699 80.2606383,97.4626039 C78.5053104,98.4321378 76.5549753,99.2465341 74.4095745,99.9058172 C72.2641737,100.5651 69.8652615,100.894737 67.212766,100.894737 C63.9361538,100.894737 61.166678,100.506929 58.9042553,99.7313019 C56.668285,98.9647435 54.8895466,98.1224379 53.5679938,97.2043644 L53.1276596,99.265928 L53.0753306,99.265928 L48.0212766,123 L41,123 L47.8399942,90.9093321 C46.6755695,91.9889763 45.3955843,93.106907 44,94.2631579 C42.5957377,95.4265986 41.0159662,96.4930699 39.2606383,97.4626039 C37.5053104,98.4321378 35.5549753,99.2465341 33.4095745,99.9058172 C31.2641737,100.5651 28.8652615,100.894737 26.212766,100.894737 C24.302888,100.894737 22.5653102,100.762979 21,100.499457 L21,93.2682475 C22.9538249,94.1642105 25.5105558,94.6121884 28.6702128,94.6121884 C31.556752,94.6121884 34.2677178,94.0498671 36.8031915,92.9252078 C39.3386652,91.8005484 41.6010539,90.229927 43.5904255,88.2132964 C45.5797972,86.1966658 47.2960921,83.7922577 48.7393617,81 C49.8936625,78.7668031 50.810918,76.3599899 51.4911448,73.7795133 L58.9042553,39 L58.9787234,39 L65.9255319,39 Z M21.0122359,39 L24.9255319,39 L21,57.4298665 L21,39.9991019 C21,39.6651191 21.0040939,39.3320928 21.0122359,39 Z M21.0122359,39" id="µ" fill="#FB8A07"></path>
                </g>
                <path d="M230.046,115 L230.046,86.237 L219.462,110.1 L216.816,110.1 L206.036,86.237 L206.036,115 L203.39,115 L203.39,80.112 L206.036,80.112 L218.188,107.013 L230.046,80.112 L232.692,80.112 L232.692,115 Z M242.541,83.199 L242.541,80.112 L245.628,80.112 L245.628,83.199 Z M242.835,115 L242.835,91.382 L245.334,91.382 L245.334,115 Z M273.95,115 L270.863,115 L262.729,102.015 L257.339,108.238 L257.339,115 L254.84,115 L254.84,80.112 L257.339,80.112 L257.339,104.71 L269.05,91.382 L272.235,91.382 L264.444,100.202 Z M295.755,93.342 L293.942,95.155 C292.521,93.734 291.443,93.293 289.483,93.293 C285.416,93.293 283.162,96.625 283.162,100.447 L283.162,115 L280.663,115 L280.663,91.382 L283.162,91.382 L283.162,94.518 C284.534,92.313 287.278,91.088 290.071,91.088 C292.325,91.088 294.089,91.676 295.755,93.342 Z M316.629,103.191 C316.629,106.572 316.188,110.198 313.689,112.697 C312.023,114.363 309.769,115.294 307.123,115.294 C304.477,115.294 302.223,114.363 300.557,112.697 C298.058,110.198 297.617,106.572 297.617,103.191 C297.617,99.81 298.058,96.184 300.557,93.685 C302.223,92.019 304.477,91.088 307.123,91.088 C309.769,91.088 312.023,92.019 313.689,93.685 C316.188,96.184 316.629,99.81 316.629,103.191 Z M314.13,103.191 C314.13,100.447 313.983,97.262 312.023,95.302 C310.749,94.028 309.034,93.293 307.123,93.293 C305.212,93.293 303.497,94.028 302.223,95.302 C300.263,97.262 300.116,100.447 300.116,103.191 C300.116,105.935 300.263,109.12 302.223,111.08 C303.497,112.354 305.212,113.089 307.123,113.089 C309.034,113.089 310.749,112.354 312.023,111.08 C313.983,109.12 314.13,105.935 314.13,103.191 Z M346.421,115 L343.873,115 L337.209,95.302 L330.545,115 L327.997,115 L320.451,91.382 L323.195,91.382 L329.222,112.06 L335.984,91.382 L338.434,91.382 L345.196,112.06 L351.223,91.382 L353.967,91.382 Z M360.288,103.73 C360.288,109.708 362.983,113.04 367.981,113.04 C370.774,113.04 372.489,112.207 374.498,110.198 L376.36,111.668 C373.959,114.069 371.754,115.294 367.834,115.294 C361.317,115.294 357.789,111.08 357.789,103.191 C357.789,95.596 361.317,91.088 367.246,91.088 C373.126,91.088 376.703,95.4 376.703,102.603 L376.703,103.73 Z M374.204,101.721 C374.106,99.467 373.959,98.732 373.371,97.262 C372.342,94.812 369.941,93.293 367.246,93.293 C364.551,93.293 362.15,94.812 361.121,97.262 C360.533,98.732 360.386,99.467 360.288,101.721 Z M390.374,115 C386.552,115 384.69,112.55 384.69,108.875 L384.69,80.112 L387.189,80.112 L387.189,108.826 C387.189,111.472 388.022,112.795 390.815,112.795 L392.53,112.795 L392.53,115 Z M404.437,115 C400.615,115 398.753,112.55 398.753,108.875 L398.753,80.112 L401.252,80.112 L401.252,108.826 C401.252,111.472 402.085,112.795 404.878,112.795 L406.593,112.795 L406.593,115 Z M412.816,103.73 C412.816,109.708 415.511,113.04 420.509,113.04 C423.302,113.04 425.017,112.207 427.026,110.198 L428.888,111.668 C426.487,114.069 424.282,115.294 420.362,115.294 C413.845,115.294 410.317,111.08 410.317,103.191 C410.317,95.596 413.845,91.088 419.774,91.088 C425.654,91.088 429.231,95.4 429.231,102.603 L429.231,103.73 Z M426.732,101.721 C426.634,99.467 426.487,98.732 425.899,97.262 C424.87,94.812 422.469,93.293 419.774,93.293 C417.079,93.293 414.678,94.812 413.649,97.262 C413.061,98.732 412.914,99.467 412.816,101.721 Z M426.732,101.721" id="Mikrowelle" fill="#FFFFFF"></path>
            </g>
            <path d="M302.273438,85.2304688" id="Path 19" stroke="#979797"></path>
        
    </g>
</svg>